<?xml version="1.0" encoding="utf-8"?>
<!-- Generator: Adobe Illustrator 23.0.1, SVG Export Plug-In . SVG Version: 6.00 Build 0)  -->
<svg version="1.1" id="Layer_1" xmlns="http://www.w3.org/2000/svg" xmlns:xlink="http://www.w3.org/1999/xlink" x="0px" y="0px"
	 viewBox="0 0 92.68 19.91" style="enable-background:new 0 0 92.68 19.91;" xml:space="preserve">
<style type="text/css">
	.st0{fill:#FFFFFF;}
</style>
<g>
	<g>
		<path class="st0" d="M3.56,17.63H2.88l-1.62-1.92c-0.06-0.07-0.1-0.12-0.11-0.15H1.13v2.07H0.64v-4.2h0.49v1.97h0.01
			c0.03-0.04,0.06-0.09,0.11-0.14l1.57-1.83h0.61l-1.8,2.02L3.56,17.63z"/>
		<path class="st0" d="M6.26,17.63H5.78v-0.47H5.77c-0.21,0.36-0.52,0.54-0.92,0.54c-0.3,0-0.53-0.08-0.7-0.24
			c-0.17-0.16-0.25-0.37-0.25-0.63c0-0.56,0.33-0.89,0.99-0.98l0.9-0.13c0-0.51-0.21-0.76-0.62-0.76c-0.36,0-0.69,0.12-0.98,0.37
			v-0.49c0.29-0.19,0.63-0.28,1.02-0.28c0.71,0,1.06,0.37,1.06,1.12V17.63z M5.78,16.12l-0.72,0.1c-0.22,0.03-0.39,0.09-0.5,0.17
			S4.38,16.6,4.38,16.8c0,0.15,0.05,0.27,0.16,0.36s0.24,0.14,0.42,0.14c0.24,0,0.44-0.08,0.59-0.25s0.23-0.38,0.23-0.63V16.12z"/>
		<path class="st0" d="M7.72,17.2H7.71v1.81H7.23v-4.38h0.48v0.53h0.01c0.24-0.4,0.58-0.6,1.04-0.6c0.39,0,0.69,0.13,0.91,0.4
			s0.33,0.63,0.33,1.08c0,0.5-0.12,0.9-0.37,1.21s-0.58,0.45-1,0.45C8.23,17.7,7.93,17.54,7.72,17.2z M7.71,15.99v0.42
			c0,0.25,0.08,0.46,0.24,0.63c0.16,0.17,0.37,0.26,0.61,0.26c0.29,0,0.52-0.11,0.68-0.33s0.25-0.53,0.25-0.93
			c0-0.33-0.08-0.6-0.23-0.79s-0.36-0.28-0.63-0.28c-0.28,0-0.5,0.1-0.67,0.29C7.79,15.45,7.71,15.7,7.71,15.99z"/>
		<path class="st0" d="M10.63,17.52v-0.52c0.26,0.19,0.55,0.29,0.86,0.29c0.42,0,0.63-0.14,0.63-0.42c0-0.08-0.02-0.15-0.05-0.2
			s-0.08-0.1-0.15-0.15s-0.13-0.08-0.22-0.12s-0.17-0.07-0.27-0.11c-0.13-0.05-0.25-0.11-0.35-0.16s-0.18-0.11-0.25-0.18
			c-0.07-0.07-0.12-0.14-0.15-0.23s-0.05-0.19-0.05-0.3c0-0.14,0.03-0.27,0.1-0.37s0.15-0.2,0.26-0.27s0.23-0.13,0.37-0.17
			s0.28-0.06,0.43-0.06c0.26,0,0.49,0.04,0.7,0.13v0.49c-0.22-0.14-0.47-0.22-0.76-0.22c-0.09,0-0.17,0.01-0.24,0.03
			s-0.13,0.05-0.19,0.09s-0.09,0.08-0.12,0.13s-0.04,0.11-0.04,0.17c0,0.08,0.01,0.14,0.04,0.2s0.07,0.1,0.12,0.14
			s0.12,0.08,0.2,0.11s0.17,0.07,0.27,0.11c0.13,0.05,0.25,0.1,0.36,0.16s0.2,0.11,0.27,0.18s0.13,0.15,0.17,0.23
			s0.06,0.19,0.06,0.31c0,0.15-0.03,0.28-0.1,0.39s-0.15,0.2-0.26,0.27s-0.24,0.13-0.38,0.16s-0.29,0.05-0.45,0.05
			C11.13,17.7,10.86,17.64,10.63,17.52z"/>
		<path class="st0" d="M15.81,14.63l-1.38,3.48c-0.25,0.62-0.59,0.93-1.04,0.93c-0.13,0-0.23-0.01-0.31-0.04v-0.43
			c0.1,0.04,0.2,0.05,0.28,0.05c0.24,0,0.42-0.14,0.54-0.43l0.24-0.57l-1.17-2.99h0.53l0.81,2.31c0.01,0.03,0.03,0.11,0.06,0.23
			h0.02c0.01-0.05,0.03-0.12,0.06-0.22l0.85-2.31H15.81z"/>
		<path class="st0" d="M18.58,17.2h-0.01v1.81h-0.48v-4.38h0.48v0.53h0.01c0.24-0.4,0.58-0.6,1.04-0.6c0.39,0,0.69,0.13,0.91,0.4
			s0.33,0.63,0.33,1.08c0,0.5-0.12,0.9-0.37,1.21s-0.58,0.45-1,0.45C19.09,17.7,18.79,17.54,18.58,17.2z M18.57,15.99v0.42
			c0,0.25,0.08,0.46,0.24,0.63s0.37,0.26,0.61,0.26c0.29,0,0.52-0.11,0.68-0.33s0.25-0.53,0.25-0.93c0-0.33-0.08-0.6-0.23-0.79
			s-0.36-0.28-0.63-0.28c-0.28,0-0.5,0.1-0.67,0.29S18.57,15.7,18.57,15.99z"/>
		<path class="st0" d="M22.15,17.63h-0.48v-4.44h0.48V17.63z"/>
		<path class="st0" d="M25.68,17.63H25.2v-1.71c0-0.64-0.23-0.96-0.7-0.96c-0.24,0-0.44,0.09-0.6,0.27s-0.24,0.41-0.24,0.68v1.71
			h-0.48v-3h0.48v0.5h0.01c0.23-0.38,0.55-0.57,0.98-0.57c0.33,0,0.58,0.11,0.75,0.32s0.26,0.52,0.26,0.92V17.63z"/>
		<path class="st0" d="M29.05,16.25h-2.12c0.01,0.33,0.1,0.59,0.27,0.77s0.41,0.27,0.71,0.27c0.34,0,0.65-0.11,0.93-0.33v0.45
			c-0.26,0.19-0.61,0.29-1.05,0.29c-0.42,0-0.76-0.14-1-0.41s-0.36-0.66-0.36-1.15c0-0.47,0.13-0.85,0.4-1.14s0.59-0.44,0.99-0.44
			s0.7,0.13,0.91,0.38s0.32,0.61,0.32,1.06V16.25z M28.56,15.85c0-0.28-0.07-0.49-0.2-0.65s-0.31-0.23-0.55-0.23
			c-0.23,0-0.42,0.08-0.58,0.24s-0.26,0.37-0.29,0.64H28.56z M28.48,13.1l-0.77,0.96h-0.37L28,13.1H28.48z"/>
		<path class="st0" d="M33.9,14.63l-1.2,3h-0.47l-1.14-3h0.53l0.76,2.18c0.06,0.16,0.09,0.3,0.11,0.42h0.01
			c0.02-0.15,0.05-0.29,0.09-0.41l0.8-2.19H33.9z"/>
		<path class="st0" d="M36.87,14.63l-1.38,3.48c-0.25,0.62-0.59,0.93-1.04,0.93c-0.13,0-0.23-0.01-0.31-0.04v-0.43
			c0.1,0.04,0.2,0.05,0.28,0.05c0.24,0,0.42-0.14,0.54-0.43l0.24-0.57l-1.17-2.99h0.53l0.81,2.31c0.01,0.03,0.03,0.11,0.06,0.23
			h0.02c0.01-0.05,0.03-0.12,0.06-0.22l0.85-2.31H36.87z M36.22,13.1l-0.77,0.96h-0.37l0.65-0.96H36.22z"/>
		<path class="st0" d="M39.93,17.63h-0.48V15.9c0-0.63-0.23-0.94-0.7-0.94c-0.23,0-0.43,0.09-0.59,0.27s-0.24,0.41-0.24,0.7v1.7
			h-0.48v-4.44h0.48v1.94h0.01c0.23-0.38,0.56-0.57,0.98-0.57c0.68,0,1.01,0.41,1.01,1.22V17.63z"/>
		<path class="st0" d="M42.15,17.7c-0.44,0-0.8-0.14-1.06-0.42s-0.4-0.65-0.4-1.11c0-0.5,0.14-0.9,0.41-1.18s0.65-0.42,1.12-0.42
			c0.45,0,0.8,0.14,1.05,0.41s0.38,0.66,0.38,1.15c0,0.48-0.14,0.86-0.41,1.15S42.6,17.7,42.15,17.7z M42.18,14.97
			c-0.31,0-0.55,0.1-0.73,0.31s-0.27,0.5-0.27,0.87c0,0.36,0.09,0.64,0.27,0.84s0.42,0.31,0.73,0.31c0.31,0,0.55-0.1,0.72-0.3
			s0.25-0.49,0.25-0.86c0-0.37-0.08-0.66-0.25-0.87S42.5,14.97,42.18,14.97z"/>
		<path class="st0" d="M47.03,17.63h-0.48v-0.51h-0.01c-0.22,0.39-0.57,0.58-1.03,0.58c-0.38,0-0.68-0.13-0.9-0.4
			s-0.34-0.63-0.34-1.1c0-0.5,0.13-0.89,0.38-1.19s0.58-0.45,1-0.45c0.41,0,0.71,0.16,0.9,0.49h0.01v-1.86h0.48V17.63z M46.55,16.28
			v-0.44c0-0.24-0.08-0.45-0.24-0.62s-0.36-0.25-0.61-0.25c-0.29,0-0.52,0.11-0.69,0.32s-0.25,0.51-0.25,0.89
			c0,0.35,0.08,0.62,0.24,0.82s0.38,0.3,0.65,0.3c0.27,0,0.48-0.1,0.65-0.29S46.55,16.57,46.55,16.28z"/>
		<path class="st0" d="M49.94,17.7c-0.09,0-0.17-0.03-0.23-0.1s-0.1-0.14-0.1-0.23s0.03-0.17,0.1-0.23s0.14-0.1,0.23-0.1
			c0.09,0,0.17,0.03,0.23,0.1s0.1,0.14,0.1,0.23s-0.03,0.17-0.1,0.23S50.03,17.7,49.94,17.7z"/>
		<path class="st0" d="M51.3,17.7c-0.09,0-0.17-0.03-0.23-0.1s-0.1-0.14-0.1-0.23s0.03-0.17,0.1-0.23s0.14-0.1,0.23-0.1
			c0.09,0,0.17,0.03,0.23,0.1s0.1,0.14,0.1,0.23s-0.03,0.17-0.1,0.23S51.39,17.7,51.3,17.7z"/>
		<path class="st0" d="M52.66,17.7c-0.09,0-0.17-0.03-0.23-0.1s-0.1-0.14-0.1-0.23s0.03-0.17,0.1-0.23s0.14-0.1,0.23-0.1
			c0.09,0,0.17,0.03,0.23,0.1s0.1,0.14,0.1,0.23s-0.03,0.17-0.1,0.23S52.75,17.7,52.66,17.7z"/>
	</g>
	<g>
		<path class="st0" d="M12.9,9.47c0.06,0.1,0.09,0.23,0.09,0.4c0,0.31-0.08,0.56-0.23,0.74c-0.38,0.46-0.77,0.82-1.16,1.07
			s-0.86,0.38-1.39,0.38c-0.59,0-1.08-0.17-1.45-0.52c-0.38-0.35-0.73-0.89-1.06-1.63C7.46,9.38,7.26,8.99,7.11,8.73
			C6.95,8.47,6.8,8.29,6.64,8.18C6.49,8.07,6.3,8,6.07,7.98L5.94,8.87c-0.17,1.14-0.49,1.97-0.98,2.47c-0.48,0.5-1.15,0.76-2,0.76
			c-0.55,0-1.04-0.13-1.47-0.4c-0.43-0.27-0.73-0.61-0.89-1.03c-0.06-0.14-0.08-0.3-0.08-0.47c0-0.24,0.06-0.45,0.17-0.62
			C0.79,9.4,0.94,9.31,1.11,9.31c0.1,0,0.19,0.03,0.26,0.08c0.07,0.05,0.14,0.14,0.2,0.27c0.25,0.46,0.47,0.79,0.65,0.97
			c0.19,0.18,0.42,0.28,0.7,0.28c0.32,0,0.59-0.15,0.82-0.44s0.39-0.74,0.49-1.35l0.17-1.14H4.22c-0.18,0-0.33-0.05-0.43-0.16
			S3.63,7.58,3.63,7.39c0-0.21,0.05-0.37,0.16-0.5C3.9,6.77,4.04,6.71,4.2,6.71h0.4c0.06-0.39,0.1-0.66,0.12-0.82l0.37-2.7
			C4.88,3.17,4.68,3.16,4.5,3.16c-0.68,0-1.2,0.12-1.55,0.35C2.6,3.75,2.42,4.08,2.42,4.52c0,0.2,0.02,0.36,0.07,0.49
			c0.04,0.12,0.1,0.26,0.17,0.41c0.03,0.06,0.05,0.14,0.05,0.22c0,0.18-0.08,0.33-0.25,0.46C2.3,6.23,2.12,6.3,1.92,6.3
			c-0.26,0-0.44-0.11-0.56-0.34C1.11,5.54,0.99,5.08,0.99,4.6c0-0.5,0.14-0.96,0.41-1.38c0.28-0.42,0.69-0.75,1.25-1
			s1.25-0.38,2.08-0.38c0.36,0,0.69,0.02,0.99,0.06c0.3,0.04,0.63,0.12,0.99,0.23C7.11,2.24,7.3,2.47,7.3,2.8
			c0,0.44-0.19,0.66-0.56,0.66L6.27,6.68c0.94-0.1,1.7-0.5,2.29-1.21s1.08-1.67,1.47-2.89c0.07-0.22,0.19-0.4,0.37-0.52
			c0.17-0.12,0.39-0.18,0.65-0.18c0.22,0,0.4,0.05,0.52,0.15c0.12,0.1,0.19,0.24,0.19,0.43c0,0.06-0.02,0.15-0.05,0.28
			c-0.4,1.32-0.97,2.37-1.72,3.14S8.44,7.18,7.56,7.44c0.3,0.07,0.55,0.18,0.75,0.32C8.5,7.91,8.67,8.09,8.8,8.3
			C8.94,8.51,9.1,8.8,9.27,9.18c0.25,0.53,0.48,0.9,0.7,1.12c0.22,0.22,0.47,0.33,0.76,0.33c0.26,0,0.5-0.09,0.73-0.26
			s0.52-0.47,0.88-0.88c0.1-0.11,0.2-0.17,0.32-0.17C12.76,9.32,12.84,9.37,12.9,9.47z"/>
		<path class="st0" d="M16.81,9.47c0.06,0.1,0.09,0.23,0.09,0.4c0,0.32-0.08,0.57-0.23,0.74c-0.34,0.42-0.72,0.77-1.12,1.04
			s-0.86,0.41-1.37,0.41c-0.7,0-1.23-0.32-1.57-0.96S12.1,9.63,12.1,8.62c0-0.98,0.13-2.09,0.38-3.34c0.25-1.25,0.62-2.32,1.12-3.22
			c0.49-0.9,1.08-1.34,1.76-1.34c0.38,0,0.69,0.18,0.91,0.53s0.33,0.87,0.33,1.53c0,0.95-0.26,2.06-0.79,3.31
			c-0.53,1.26-1.24,2.5-2.15,3.73c0.06,0.33,0.15,0.56,0.28,0.7c0.13,0.14,0.3,0.21,0.5,0.21c0.33,0,0.62-0.09,0.86-0.28
			s0.56-0.51,0.95-0.97c0.1-0.11,0.2-0.17,0.32-0.17C16.67,9.32,16.75,9.37,16.81,9.47z M14.47,2.9c-0.23,0.66-0.44,1.49-0.61,2.47
			c-0.18,0.98-0.27,1.93-0.29,2.83c0.57-0.94,1.02-1.87,1.36-2.81s0.5-1.8,0.5-2.57c0-0.61-0.11-0.91-0.34-0.91
			C14.91,1.91,14.7,2.24,14.47,2.9z"/>
		<path class="st0" d="M22.29,8.47c0.06,0.1,0.08,0.24,0.08,0.4c0,0.38-0.12,0.61-0.35,0.68c-0.48,0.17-1.01,0.26-1.58,0.29
			c-0.15,0.67-0.45,1.21-0.9,1.61c-0.45,0.4-0.96,0.61-1.52,0.61c-0.48,0-0.89-0.12-1.23-0.35c-0.34-0.23-0.6-0.54-0.77-0.92
			c-0.18-0.38-0.26-0.8-0.26-1.25c0-0.61,0.12-1.15,0.35-1.63c0.23-0.48,0.55-0.85,0.96-1.12c0.41-0.27,0.86-0.4,1.36-0.4
			c0.61,0,1.1,0.21,1.47,0.63c0.37,0.42,0.59,0.94,0.65,1.55c0.38-0.02,0.82-0.1,1.34-0.24c0.06-0.02,0.12-0.02,0.17-0.02
			C22.16,8.32,22.24,8.37,22.29,8.47z M18.78,10.48c0.19-0.21,0.31-0.51,0.38-0.9c-0.25-0.17-0.44-0.39-0.57-0.66
			c-0.13-0.27-0.2-0.56-0.2-0.86c0-0.13,0.01-0.26,0.04-0.38h-0.06c-0.32,0-0.59,0.15-0.8,0.46c-0.21,0.31-0.32,0.74-0.32,1.3
			c0,0.44,0.09,0.78,0.26,1.01c0.17,0.23,0.37,0.35,0.61,0.35C18.37,10.79,18.59,10.68,18.78,10.48z"/>
		<path class="st0" d="M28.53,9.47c0.06,0.1,0.09,0.23,0.09,0.4c0,0.32-0.08,0.57-0.23,0.74c-0.36,0.44-0.72,0.79-1.09,1.06
			c-0.37,0.26-0.8,0.4-1.31,0.4c-0.62,0-1.11-0.18-1.49-0.53s-0.56-0.82-0.56-1.4c0-0.31,0.16-0.54,0.48-0.67
			c0.35-0.15,0.6-0.31,0.76-0.49c0.15-0.17,0.23-0.38,0.23-0.63c0-0.14-0.03-0.25-0.09-0.32c-0.06-0.07-0.13-0.11-0.22-0.11
			c-0.22,0-0.45,0.16-0.71,0.47c-0.26,0.31-0.5,0.71-0.73,1.21s-0.4,1-0.53,1.52c-0.09,0.38-0.19,0.63-0.31,0.76
			c-0.12,0.13-0.3,0.2-0.55,0.2s-0.43-0.09-0.55-0.27c-0.12-0.18-0.19-0.46-0.23-0.83c-0.04-0.38-0.06-0.93-0.06-1.66
			c0-1.23,0.13-2.52,0.38-3.85s0.62-2.46,1.12-3.37c0.49-0.91,1.08-1.36,1.77-1.36c0.37,0,0.67,0.16,0.89,0.47
			c0.23,0.32,0.34,0.73,0.34,1.23c0,0.81-0.24,1.65-0.71,2.51c-0.47,0.87-1.24,1.88-2.3,3.04c-0.02,0.42-0.04,0.84-0.04,1.28
			c0.38-1,0.82-1.73,1.32-2.18c0.5-0.45,0.96-0.68,1.39-0.68c0.4,0,0.72,0.14,0.97,0.41s0.37,0.61,0.37,1.01
			c0,0.44-0.11,0.84-0.34,1.21s-0.61,0.7-1.15,0.98c0.03,0.22,0.13,0.39,0.29,0.52s0.36,0.2,0.59,0.2c0.25,0,0.49-0.1,0.72-0.29
			c0.23-0.19,0.54-0.51,0.91-0.96c0.1-0.11,0.2-0.17,0.32-0.17C28.38,9.32,28.47,9.37,28.53,9.47z M23.96,2.53
			c-0.18,0.41-0.35,0.97-0.51,1.67c-0.16,0.7-0.3,1.46-0.4,2.29c0.5-0.58,0.91-1.22,1.23-1.91c0.32-0.69,0.49-1.31,0.49-1.87
			c0-0.26-0.03-0.45-0.08-0.59c-0.06-0.14-0.14-0.2-0.24-0.2C24.3,1.91,24.14,2.11,23.96,2.53z"/>
		<path class="st0" d="M27.93,11.52c-0.3-0.36-0.44-0.83-0.44-1.42c0-0.64,0.15-1.25,0.44-1.82s0.69-1.03,1.18-1.38
			c0.49-0.35,1.01-0.52,1.57-0.52c0.18,0,0.29,0.03,0.35,0.1c0.06,0.07,0.11,0.19,0.15,0.37c0.17-0.03,0.34-0.05,0.53-0.05
			c0.39,0,0.59,0.14,0.59,0.42c0,0.17-0.06,0.57-0.18,1.2c-0.18,0.92-0.28,1.56-0.28,1.92c0,0.12,0.03,0.22,0.09,0.29
			c0.06,0.07,0.14,0.11,0.23,0.11c0.15,0,0.34-0.1,0.55-0.29c0.22-0.2,0.51-0.51,0.88-0.95c0.1-0.11,0.2-0.17,0.32-0.17
			c0.1,0,0.19,0.05,0.25,0.14c0.06,0.1,0.09,0.23,0.09,0.4c0,0.32-0.08,0.57-0.23,0.74c-0.33,0.41-0.68,0.75-1.04,1.03
			c-0.37,0.28-0.72,0.42-1.07,0.42c-0.26,0-0.51-0.09-0.73-0.27c-0.22-0.18-0.39-0.43-0.5-0.74c-0.42,0.67-0.94,1.01-1.57,1.01
			C28.62,12.06,28.23,11.88,27.93,11.52z M30.06,10.54c0.16-0.21,0.28-0.48,0.35-0.83l0.44-2.21c-0.34,0.01-0.65,0.13-0.93,0.38
			c-0.28,0.24-0.51,0.57-0.68,0.97c-0.17,0.4-0.25,0.82-0.25,1.27c0,0.25,0.05,0.43,0.15,0.55s0.24,0.18,0.41,0.18
			S29.89,10.74,30.06,10.54z"/>
		<path class="st0" d="M33.49,11.58c-0.12-0.32-0.19-0.83-0.19-1.54c0-1.04,0.15-2.03,0.44-2.96c0.07-0.23,0.19-0.4,0.35-0.51
			c0.16-0.11,0.39-0.16,0.69-0.16c0.16,0,0.27,0.02,0.34,0.06c0.06,0.04,0.1,0.12,0.1,0.23c0,0.13-0.06,0.42-0.18,0.86
			c-0.08,0.32-0.14,0.6-0.19,0.84c-0.05,0.24-0.09,0.54-0.12,0.89C35,8.6,35.29,8.04,35.62,7.61c0.33-0.43,0.65-0.74,0.97-0.92
			s0.61-0.28,0.87-0.28c0.52,0,0.78,0.26,0.78,0.78c0,0.31-0.09,0.88-0.26,1.69c-0.15,0.7-0.23,1.16-0.23,1.38
			c0,0.32,0.12,0.48,0.35,0.48c0.16,0,0.35-0.1,0.57-0.29c0.22-0.2,0.51-0.51,0.88-0.95c0.1-0.11,0.2-0.17,0.32-0.17
			c0.1,0,0.19,0.05,0.25,0.14c0.06,0.1,0.09,0.23,0.09,0.4c0,0.32-0.08,0.57-0.23,0.74c-0.34,0.42-0.71,0.77-1.11,1.04
			s-0.85,0.41-1.35,0.41c-0.41,0-0.72-0.12-0.92-0.35c-0.21-0.24-0.31-0.58-0.31-1.03c0-0.22,0.06-0.62,0.17-1.2
			c0.1-0.5,0.16-0.85,0.16-1.04c0-0.13-0.04-0.19-0.13-0.19c-0.1,0-0.25,0.13-0.44,0.4s-0.38,0.62-0.58,1.06s-0.35,0.9-0.47,1.39
			c-0.09,0.38-0.19,0.63-0.31,0.76c-0.12,0.13-0.3,0.2-0.55,0.2C33.83,12.06,33.62,11.9,33.49,11.58z"/>
	</g>
	<g>
		<path class="st0" d="M41.21,2.5h6.31l-0.24,1.14h-3.06l-0.63,2.89h2.56l-0.24,1.13h-2.56l-0.69,3.21h3.06l-0.23,1.15h-6.31
			L41.21,2.5z"/>
		<path class="st0" d="M50.75,6.54c0.21-0.2,0.44-0.38,0.71-0.55c0.23-0.14,0.5-0.27,0.81-0.39c0.31-0.12,0.65-0.18,1.03-0.18
			c0.52,0,0.95,0.13,1.29,0.4c0.34,0.26,0.51,0.63,0.51,1.09c0,0.13-0.02,0.29-0.04,0.47c-0.03,0.19-0.07,0.38-0.1,0.58
			c-0.04,0.2-0.08,0.4-0.13,0.61c-0.04,0.21-0.08,0.39-0.11,0.55l-0.63,2.92h-3.04l0.82-3.92c0.02-0.13,0.04-0.26,0.08-0.4
			c0.03-0.13,0.04-0.26,0.04-0.37c0-0.15-0.04-0.27-0.11-0.37c-0.08-0.1-0.19-0.14-0.34-0.14c-0.18,0-0.35,0.06-0.52,0.19
			c-0.17,0.13-0.29,0.24-0.38,0.33l-0.99,4.67h-3.06l1.36-6.45h2.45l0.27,0.96H50.75z"/>
		<path class="st0" d="M58.79,9.01c-0.04,0.22-0.07,0.43-0.08,0.63c-0.02,0.2-0.02,0.38-0.02,0.54c0,0.09,0,0.19,0.02,0.3
			c0.01,0.11,0.03,0.21,0.07,0.31c0.03,0.09,0.08,0.17,0.15,0.24c0.06,0.07,0.16,0.1,0.28,0.1c0.09,0,0.19-0.03,0.31-0.09
			c0.11-0.06,0.23-0.14,0.35-0.25c0.11-0.11,0.23-0.24,0.33-0.4s0.19-0.34,0.25-0.54h2.46l-0.39,1.6c-0.2,0.13-0.43,0.24-0.69,0.33
			c-0.26,0.09-0.54,0.16-0.83,0.22c-0.29,0.06-0.58,0.1-0.88,0.12c-0.3,0.02-0.58,0.04-0.85,0.04c-0.5,0-0.97-0.04-1.4-0.14
			c-0.43-0.09-0.81-0.24-1.13-0.46c-0.32-0.22-0.57-0.51-0.76-0.88s-0.28-0.82-0.28-1.36c0-0.49,0.08-0.97,0.23-1.44
			c0.15-0.47,0.42-0.89,0.78-1.25c0.36-0.36,0.85-0.66,1.47-0.88c0.62-0.22,1.38-0.33,2.3-0.33c1,0,1.75,0.16,2.26,0.47
			s0.76,0.79,0.76,1.46c0,0.27-0.04,0.56-0.12,0.88c-0.08,0.31-0.2,0.58-0.36,0.8H58.79z M60.78,7.23c0-0.31-0.05-0.52-0.15-0.63
			c-0.1-0.11-0.22-0.17-0.36-0.17c-0.16,0-0.31,0.05-0.44,0.16s-0.26,0.25-0.37,0.42c-0.11,0.18-0.21,0.38-0.3,0.6
			S59,8.07,58.94,8.32h1.71c0.02-0.12,0.04-0.24,0.06-0.38c0.02-0.11,0.04-0.23,0.05-0.36C60.78,7.46,60.78,7.34,60.78,7.23z"/>
		<path class="st0" d="M64.94,5.58h2.45l0.22,1.13h0.11c0.23-0.36,0.52-0.66,0.88-0.92c0.36-0.25,0.83-0.38,1.42-0.38
			c0.04,0,0.1,0,0.19,0.01s0.18,0.02,0.29,0.04s0.21,0.06,0.33,0.1c0.11,0.04,0.23,0.11,0.34,0.19L70.5,8.85h-1.63
			c-0.02-0.62-0.08-1.05-0.17-1.3s-0.23-0.37-0.44-0.37c-0.1,0-0.21,0.02-0.32,0.07c-0.12,0.04-0.23,0.14-0.35,0.29l-0.96,4.48
			h-3.06L64.94,5.58z"/>
		<path class="st0" d="M77.09,5.58h2.43l-1.23,5.83c-0.09,0.45-0.24,0.87-0.45,1.25s-0.5,0.71-0.88,0.99
			c-0.38,0.28-0.85,0.5-1.41,0.66c-0.56,0.16-1.25,0.24-2.06,0.24c-0.15,0-0.33,0-0.54-0.01c-0.21-0.01-0.43-0.01-0.65-0.02
			c-0.22-0.01-0.43-0.01-0.63-0.02c-0.2-0.01-0.36-0.02-0.48-0.03l0.28-1.08c0.32,0.05,0.65,0.08,0.98,0.08
			c0.33,0.01,0.62,0.01,0.86,0.01c0.3,0,0.55-0.03,0.76-0.08c0.21-0.06,0.38-0.14,0.51-0.26c0.13-0.12,0.24-0.28,0.33-0.48
			c0.08-0.2,0.15-0.44,0.2-0.73l0.18-0.98h-0.1c-0.06,0.09-0.15,0.2-0.26,0.32c-0.11,0.13-0.26,0.25-0.44,0.36
			c-0.18,0.12-0.39,0.21-0.64,0.29c-0.25,0.07-0.52,0.11-0.83,0.11c-0.35,0-0.65-0.05-0.89-0.16c-0.25-0.1-0.44-0.25-0.59-0.43
			c-0.15-0.19-0.26-0.41-0.33-0.66c-0.07-0.25-0.11-0.53-0.11-0.83c0-0.13,0.01-0.33,0.03-0.6s0.07-0.57,0.14-0.92
			c0.07-0.34,0.18-0.69,0.33-1.04c0.14-0.35,0.34-0.68,0.58-0.97c0.24-0.29,0.55-0.53,0.92-0.72c0.36-0.19,0.81-0.29,1.33-0.29
			c0.16,0,0.33,0.02,0.53,0.05c0.19,0.03,0.38,0.08,0.55,0.17c0.18,0.08,0.34,0.19,0.48,0.34s0.25,0.35,0.33,0.58h0.09L77.09,5.58z
			 M75.41,6.88c-0.24,0-0.44,0.13-0.6,0.38c-0.16,0.26-0.29,0.55-0.39,0.89c-0.1,0.34-0.17,0.68-0.22,1.01s-0.07,0.58-0.07,0.74
			c0,0.2,0.03,0.37,0.1,0.5c0.06,0.13,0.18,0.2,0.35,0.2c0.1,0,0.2-0.02,0.29-0.07c0.09-0.05,0.18-0.11,0.27-0.17
			c0.08-0.06,0.16-0.13,0.22-0.2s0.11-0.13,0.14-0.17l0.56-2.63c-0.08-0.11-0.17-0.22-0.28-0.33C75.68,6.94,75.56,6.88,75.41,6.88z"
			/>
		<path class="st0" d="M82.53,12.03h-3.04l1.36-6.45h3.08L82.53,12.03z M84.32,3.61c0,0.23-0.05,0.43-0.14,0.6
			c-0.1,0.17-0.22,0.31-0.38,0.44c-0.16,0.12-0.33,0.21-0.53,0.27s-0.4,0.09-0.61,0.09c-0.4,0-0.74-0.09-1.01-0.29
			c-0.27-0.19-0.4-0.49-0.4-0.9c0-0.22,0.04-0.42,0.14-0.59c0.09-0.17,0.21-0.32,0.37-0.44c0.15-0.11,0.33-0.2,0.54-0.26
			s0.42-0.09,0.64-0.09c0.39,0,0.72,0.1,0.99,0.29S84.32,3.21,84.32,3.61z"/>
		<path class="st0" d="M87.3,9.01c-0.04,0.22-0.07,0.43-0.08,0.63c-0.02,0.2-0.02,0.38-0.02,0.54c0,0.09,0,0.19,0.02,0.3
			c0.01,0.11,0.03,0.21,0.07,0.31c0.03,0.09,0.08,0.17,0.15,0.24c0.06,0.07,0.16,0.1,0.28,0.1c0.09,0,0.19-0.03,0.31-0.09
			c0.11-0.06,0.23-0.14,0.35-0.25c0.11-0.11,0.23-0.24,0.33-0.4s0.19-0.34,0.25-0.54h2.46l-0.39,1.6c-0.2,0.13-0.43,0.24-0.69,0.33
			c-0.26,0.09-0.54,0.16-0.83,0.22c-0.29,0.06-0.58,0.1-0.88,0.12c-0.3,0.02-0.58,0.04-0.85,0.04c-0.5,0-0.97-0.04-1.4-0.14
			c-0.43-0.09-0.81-0.24-1.13-0.46c-0.32-0.22-0.57-0.51-0.76-0.88S84.2,9.85,84.2,9.31c0-0.49,0.08-0.97,0.23-1.44
			c0.15-0.47,0.42-0.89,0.78-1.25c0.36-0.36,0.85-0.66,1.47-0.88c0.62-0.22,1.38-0.33,2.3-0.33c1,0,1.75,0.16,2.26,0.47
			S92,6.67,92,7.33c0,0.27-0.04,0.56-0.12,0.88c-0.08,0.31-0.2,0.58-0.36,0.8H87.3z M89.3,7.23c0-0.31-0.05-0.52-0.15-0.63
			c-0.1-0.11-0.22-0.17-0.36-0.17c-0.16,0-0.31,0.05-0.44,0.16s-0.26,0.25-0.37,0.42c-0.11,0.18-0.21,0.38-0.3,0.6
			s-0.17,0.46-0.23,0.71h1.71c0.02-0.12,0.04-0.24,0.06-0.38c0.02-0.11,0.04-0.23,0.05-0.36C89.29,7.46,89.3,7.34,89.3,7.23z"/>
	</g>
</g>
</svg>
