<?xml version="1.0" encoding="utf-8"?>
<!-- Generator: Adobe Illustrator 23.0.1, SVG Export Plug-In . SVG Version: 6.00 Build 0)  -->
<svg version="1.1" id="Layer_1" xmlns="http://www.w3.org/2000/svg" xmlns:xlink="http://www.w3.org/1999/xlink" x="0px" y="0px"
	 viewBox="0 0 104.4 21.8" style="enable-background:new 0 0 104.4 21.8;" xml:space="preserve">
<style type="text/css">
	.st0{fill:#FFFFFF;}
	.st1{fill:#1C79BE;}
</style>
<path class="st0" d="M102.8,21.8H1.6c-0.9,0-1.6-0.7-1.6-1.6V1.6C0,0.7,0.7,0,1.6,0h101.1c0.9,0,1.6,0.7,1.6,1.6v18.6
	C104.4,21.1,103.7,21.8,102.8,21.8z"/>
<g>
	<path class="st1" d="M31.4,6.3v0.8l-4,8.3h-1.3l4-8.1l0,0h-4.5v-1H31.4z"/>
	<path class="st1" d="M38.6,6.3v0.8l-4,8.3h-1.3l4-8.1l0,0h-4.5v-1H38.6z"/>
	<path class="st1" d="M41.5,10.6c-1-0.5-1.5-1.3-1.5-2c0-1.4,1.2-2.4,2.8-2.4c1.8,0,2.7,1.1,2.7,2.2c0,0.8-0.4,1.6-1.5,2.1l0,0
		c1.1,0.4,1.8,1.3,1.8,2.4c0,1.6-1.4,2.6-3.1,2.6c-1.9,0-3.1-1.1-3.1-2.5C39.8,11.9,40.4,11.1,41.5,10.6L41.5,10.6z M44.7,13
		c0-1.1-0.8-1.6-2-2c-1.1,0.3-1.6,1-1.6,1.9s0.7,1.7,1.8,1.7C43.9,14.6,44.7,13.9,44.7,13z M41.3,8.4c0,0.9,0.7,1.4,1.7,1.7
		c0.8-0.3,1.4-0.8,1.4-1.7C44.4,7.7,44,7,42.8,7C41.8,7,41.3,7.7,41.3,8.4z"/>
	<path class="st1" d="M53.8,15.4v-2.5h-4.2v-0.8l4.1-5.8H55V12h1.3v1H55v2.5L53.8,15.4L53.8,15.4z M53.8,11.9v-3c0-0.5,0-1,0-1.4
		l0,0C53.5,8,53.3,8.4,53,8.8l-2.2,3.1l0,0H53.8z"/>
	<path class="st1" d="M57.2,15.4v-0.8l1-0.9c2.3-2.2,3.4-3.4,3.4-4.8c0-0.9-0.4-1.8-1.8-1.8c-0.8,0-1.5,0.4-1.9,0.8L57.4,7
		C58.1,6.5,59,6.1,60,6.1c2,0,2.8,1.3,2.8,2.6c0,1.7-1.2,3-3.1,4.9L59,14.3l0,0h4v1L57.2,15.4L57.2,15.4z"/>
	<path class="st1" d="M65.1,14.5c0.3,0,0.6,0,1,0c0.7-0.1,1.4-0.4,1.9-0.9c0.6-0.5,1-1.3,1.2-2.4l0,0c-0.5,0.6-1.2,1-2.2,1
		c-1.6,0-2.7-1.2-2.7-2.8c0-1.7,1.2-3.2,3.1-3.2s3,1.5,3,3.9c0,2-0.7,3.4-1.6,4.3c-0.7,0.7-1.7,1.1-2.6,1.2
		c-0.4,0.1-0.8,0.1-1.1,0.1C65.1,15.7,65.1,14.5,65.1,14.5z M65.5,9.3c0,1.1,0.7,1.9,1.8,1.9c0.8,0,1.5-0.4,1.8-1
		c0.1-0.1,0.1-0.3,0.1-0.5c0-1.6-0.6-2.7-1.9-2.7C66.3,7,65.5,8,65.5,9.3z"/>
	<path class="st1" d="M80.4,6.3v0.8l-4,8.3h-1.3l4-8.1l0,0h-4.5v-1H80.4z"/>
	<path class="st1" d="M87.8,10.7c0,3.1-1.2,4.8-3.2,4.8c-1.8,0-3-1.7-3-4.7c0-3.1,1.3-4.7,3.2-4.7C86.7,6.1,87.8,7.8,87.8,10.7z
		 M82.8,10.9c0,2.4,0.7,3.7,1.8,3.7c1.2,0,1.8-1.5,1.8-3.8c0-2.2-0.6-3.7-1.8-3.7C83.6,7.1,82.8,8.4,82.8,10.9z"/>
	<path class="st1" d="M88.9,15.4v-0.8l1-0.9c2.3-2.2,3.4-3.4,3.4-4.8c0-0.9-0.4-1.8-1.8-1.8c-0.8,0-1.5,0.4-1.9,0.8L89.1,7
		c0.6-0.5,1.5-0.9,2.6-0.9c2,0,2.8,1.3,2.8,2.6c0,1.7-1.2,3-3.1,4.9l-0.7,0.7l0,0h4.1v1L88.9,15.4L88.9,15.4z"/>
</g>
<path class="st1" d="M9.8,10.2c0.4,0.8,0.9,1.4,1.5,2s1.2,1,2,1.4c0,0,0,0,0.1,0c0.4-0.4,0.7-0.7,1.1-1.1c0,0,0,0,0.1-0.1
	s0.3-0.2,0.5-0.1c0.1,0,0.2,0.1,0.3,0.1c0.2,0.1,0.5,0.1,0.7,0.1c0.3,0,0.5,0.1,0.8,0.1c0.1,0,0.1,0,0.2,0c0.2,0.1,0.4,0.3,0.4,0.5
	l0,0c0,0.6,0,1.2,0,1.8c0,0.1,0,0.1,0,0.2c-0.1,0.2-0.3,0.4-0.5,0.4c-0.1,0-0.3,0-0.4,0c-0.2,0-0.3,0-0.5,0c-0.1,0-0.3,0-0.4-0.1
	c-0.2,0-0.4-0.1-0.6-0.1c-0.4-0.1-0.8-0.2-1.2-0.4c-1.4-0.5-2.5-1.3-3.5-2.4c-0.8-0.9-1.5-2-1.8-3.2C8.2,9,8.1,8.6,8,8.2
	c0-0.3-0.1-0.5-0.1-0.8s0-0.5,0-0.8c0-0.2,0.1-0.3,0.2-0.4s0.2-0.1,0.3-0.1l0,0c0.6,0,1.2,0,1.8,0c0.1,0,0.1,0,0.2,0
	c0.2,0.1,0.3,0.2,0.4,0.4v0.1c0,0.2,0,0.4,0,0.6c0,0.4,0.1,0.8,0.3,1.2c0,0.1,0,0.2,0,0.3C11,8.9,11,9,10.9,9l0,0
	C10.5,9.4,10.2,9.8,9.8,10.2L9.8,10.2z"/>
</svg>
